<svg width="25" height="24" viewBox="0 0 25 24" fill="none" xmlns="http://www.w3.org/2000/svg">
<g clip-path="url(#clip0_121_2851)">
<path fill-rule="evenodd" clip-rule="evenodd" d="M12.7638 1.66372C12.7837 1.67978 12.8893 1.77829 12.9064 2.15459C12.9235 2.52934 12.8421 3.05919 12.6202 3.72627C12.1789 5.05296 11.2517 6.7153 9.9183 8.36468C8.58486 10.0141 7.15363 11.2689 5.94883 11.9783C5.34303 12.335 4.84199 12.5256 4.47198 12.5875C4.10044 12.6495 3.982 12.5669 3.96214 12.5509C3.94228 12.5348 3.8367 12.4363 3.81957 12.06C3.80251 11.6853 3.88392 11.1554 4.1058 10.4883C4.54707 9.16164 5.47424 7.49929 6.80769 5.84991C8.14113 4.20053 9.57235 2.94569 10.7772 2.23628C11.383 1.87958 11.884 1.68897 12.254 1.62714C12.6255 1.56506 12.744 1.64767 12.7638 1.66372ZM13.3925 0.886071C14.681 1.92772 13.4737 5.55749 10.696 8.99338C8.38851 11.8475 5.72324 13.6701 4.1483 13.6083C4.43081 13.6194 4.74841 13.5699 5.09274 13.4647L6.29539 14.437C6.31525 14.453 6.43369 14.5356 6.80523 14.4735C7.17524 14.4117 7.67628 14.2211 8.28208 13.8644C9.48688 13.155 10.9181 11.9002 12.2515 10.2508C13.585 8.60139 14.5122 6.93905 14.9534 5.61236C15.1753 4.94528 15.2567 4.41542 15.2397 4.04068C15.2225 3.66437 15.117 3.56586 15.0971 3.54981L13.8944 2.5775C13.9601 1.81134 13.8029 1.21764 13.3928 0.886103L13.3928 0.886079L15.7258 2.77216C17.0142 3.81381 15.8069 7.44358 13.0292 10.8795C10.2515 14.3154 6.95515 16.2563 5.6667 15.2146L3.3492 13.341C3.34392 13.3369 3.33867 13.3327 3.33345 13.3285C2.04499 12.2869 3.25229 8.65711 6.03003 5.22122C8.80777 1.78533 12.1041 -0.155582 13.3925 0.886071Z" fill="#01EF9C"/>
<path fill-rule="evenodd" clip-rule="evenodd" d="M20.9431 16.1267C20.9444 16.1522 20.9411 16.2966 20.6718 16.5599C20.4035 16.8221 19.9539 17.1141 19.3085 17.3927C18.0248 17.9467 16.1671 18.3616 14.0486 18.4647C11.9302 18.5679 10.041 18.3353 8.70955 17.9087C8.04008 17.6941 7.56427 17.4471 7.27181 17.2122C6.97813 16.9763 6.96091 16.8329 6.95967 16.8074C6.95843 16.7819 6.96164 16.6376 7.23102 16.3743C7.49928 16.112 7.94885 15.82 8.59432 15.5415C9.87803 14.9875 11.7357 14.5726 13.8541 14.4695C15.9726 14.3663 17.8618 14.5988 19.1932 15.0255C19.8627 15.2401 20.3385 15.487 20.631 15.722C20.9247 15.9579 20.9419 16.1012 20.9431 16.1267ZM21.9419 16.0781C22.0225 17.733 18.5103 19.2487 14.0973 19.4635C10.4314 19.642 7.29702 18.8666 6.29457 17.6504C6.47436 17.8686 6.72276 18.0726 7.03053 18.2594L7.10572 19.8041C7.10697 19.8296 7.12418 19.973 7.41786 20.2089C7.71033 20.4438 8.18613 20.6908 8.85561 20.9053C10.1871 21.332 12.0762 21.5645 14.1947 21.4614C16.3132 21.3583 18.1708 20.9434 19.4545 20.3894C20.1 20.1108 20.5496 19.8188 20.8178 19.5566C21.0872 19.2933 21.0904 19.1489 21.0892 19.1234L21.014 17.5787C21.6294 17.1176 21.9677 16.605 21.9421 16.0783L21.9421 16.0783L22.088 19.0748C22.1685 20.7297 18.6564 22.2454 14.2433 22.4602C9.83026 22.675 6.18747 21.5076 6.10691 19.8527L5.96201 16.8762C5.96156 16.8695 5.96118 16.8628 5.96085 16.8561C5.88029 15.2012 9.39247 13.6855 13.8055 13.4706C18.2186 13.2558 21.8614 14.4232 21.9419 16.0781Z" fill="#01EF9C"/>
</g>
<defs>
<clipPath id="clip0_121_2851">
<rect width="24" height="24" fill="white" transform="translate(0.5)"/>
</clipPath>
</defs>
</svg>
