<svg width="25" height="24" viewBox="0 0 25 24" fill="none" xmlns="http://www.w3.org/2000/svg">
<path fill-rule="evenodd" clip-rule="evenodd" d="M3.405 8.98209C2.54842 10.0405 3.13982 11.4498 4.34443 11.7833L5.16712 19.1875C5.33593 20.7068 6.62013 21.8562 8.14878 21.8562H16.5686C18.0973 21.8562 19.3814 20.7068 19.5503 19.1875L20.3729 11.7833C21.5776 11.4498 22.169 10.0406 21.3124 8.98209C19.344 6.54974 16.4179 3.66419 13.0681 2.15273C12.6168 1.94909 12.1007 1.94909 11.6493 2.15273C8.29957 3.66419 5.37342 6.54974 3.405 8.98209ZM4.8911 10.8562H19.8263C20.2287 10.8562 20.5064 10.6486 20.6347 10.4056C20.7563 10.1751 20.7606 9.88986 20.5351 9.61117C18.6082 7.23008 15.8 4.48248 12.6568 3.06424C12.467 2.97859 12.2504 2.97859 12.0606 3.06424C8.91747 4.48248 6.10927 7.23008 4.18234 9.61117C3.9568 9.88986 3.96111 10.1751 4.08276 10.4056C4.21098 10.6486 4.48869 10.8562 4.8911 10.8562ZM15.3587 20.8562H16.5686C17.5877 20.8562 18.4438 20.0899 18.5564 19.0771L19.3587 11.8562H5.35869L6.16101 19.0771C6.27355 20.0899 7.12968 20.8562 8.14878 20.8562H9.3587V16.8562C9.3587 16.3039 9.80642 15.8562 10.3587 15.8562H14.3587C14.911 15.8562 15.3587 16.3039 15.3587 16.8562V20.8562ZM10.3587 20.8562H14.3587V16.8562H10.3587V20.8562Z" fill="#01EF9C"/>
</svg>
