<svg width="25" height="24" viewBox="0 0 25 24" fill="none" xmlns="http://www.w3.org/2000/svg">
<path fill-rule="evenodd" clip-rule="evenodd" d="M11.6464 6.90381L9.52512 4.78249C8.35355 3.61092 6.45405 3.61092 5.28248 4.78249C4.11091 5.95406 4.11091 7.85356 5.28248 9.02513L7.4038 11.1464C8.45491 12.1976 10.092 12.3056 11.2636 11.4707L10.2322 10.4393C10.037 10.2441 10.037 9.9275 10.2322 9.73224C10.4275 9.53697 10.7441 9.53697 10.9393 9.73224L11.9707 10.7636C12.8056 9.59196 12.6976 7.95492 11.6464 6.90381ZM12.0293 12.2364C11.1944 13.408 11.3024 15.0451 12.3535 16.0962L14.4749 18.2175C15.6464 19.3891 17.5459 19.3891 18.7175 18.2175C19.8891 17.0459 19.8891 15.1464 18.7175 13.9749L16.5962 11.8536C15.5451 10.8024 13.908 10.6944 12.7364 11.5293L13.7678 12.5607C13.963 12.7559 13.963 13.0725 13.7678 13.2678C13.5725 13.463 13.2559 13.463 13.0607 13.2678L12.0293 12.2364ZM10.6296 12.8704C9.27758 13.2574 7.76161 12.9185 6.6967 11.8536L4.57538 9.73224C3.01328 8.17014 3.01328 5.63748 4.57538 4.07538C6.13747 2.51328 8.67013 2.51328 10.2322 4.07538L12.3535 6.1967C13.4185 7.26161 13.7574 8.77759 13.3704 10.1296C14.7224 9.7426 16.2384 10.0815 17.3033 11.1464L19.4246 13.2678C20.9867 14.8299 20.9867 17.3625 19.4246 18.9246C17.8625 20.4867 15.3299 20.4867 13.7678 18.9246L11.6464 16.8033C10.5815 15.7384 10.2426 14.2224 10.6296 12.8704Z" fill="#01EF9C"/>
</svg>
