<svg width="126" height="32" viewBox="0 0 126 32" fill="none" xmlns="http://www.w3.org/2000/svg">
<g clip-path="url(#clip0_17_2)">
<path d="M4.26192 0.664412C4.43456 0.760616 4.54265 0.814731 4.64623 0.880872C6.16394 1.80383 7.68465 2.71627 9.19786 3.64525C9.28888 3.70732 9.3939 3.74572 9.50345 3.75701C9.61299 3.76829 9.72362 3.7521 9.82536 3.70988C12.6121 2.74337 15.6284 2.65888 18.4648 3.46787C18.5642 3.50126 18.67 3.51158 18.774 3.49804C18.878 3.4845 18.9776 3.44745 19.0652 3.3897C20.8156 2.33246 22.573 1.28373 24.3374 0.243517C24.465 0.168358 24.5956 0.093198 24.7653 0C24.7835 0.0993745 24.7955 0.199779 24.8013 0.300639C24.8013 2.50432 24.8013 4.708 24.8013 6.91469C24.8076 6.99444 24.7965 7.07459 24.7687 7.14961C24.741 7.22462 24.6973 7.2927 24.6407 7.34912C23.6544 8.32619 22.6741 9.31229 21.6923 10.2939C21.6618 10.3167 21.6297 10.3373 21.5962 10.3555C19.3655 8.22097 16.6903 7.21533 13.5904 7.48591C11.4013 7.67032 9.33975 8.59358 7.7432 10.1045C6.18695 11.5418 5.1262 13.4364 4.71361 15.5157C4.30103 17.595 4.55787 19.7518 5.44718 21.6757C6.33649 23.5995 7.81242 25.1913 9.66256 26.2219C11.5127 27.2524 13.6417 27.6687 15.7431 27.4107C20.7135 26.7899 23.6244 22.9132 24.2579 19.7159H23.818C20.4663 19.7159 17.1137 19.7159 13.76 19.7159C13.4729 19.7215 13.1933 19.6239 12.9719 19.4408C12.6718 19.203 12.4296 18.9 12.2636 18.5547C12.0976 18.2094 12.0121 17.8309 12.0135 17.4477C12.015 17.0645 12.1034 16.6866 12.272 16.3426C12.4406 15.9986 12.685 15.6974 12.9869 15.4619C13.2091 15.2795 13.4893 15.183 13.7765 15.1898C16.4036 15.2003 19.0307 15.1898 21.6548 15.1898H28.8605C28.9041 15.5175 28.9611 15.8316 28.9881 16.1488C29.2337 18.8851 28.6994 21.635 27.4474 24.0795C26.1954 26.5241 24.2769 28.5632 21.9145 29.9602C19.4229 31.4586 16.5343 32.1608 13.6339 31.9729C7.2373 31.6017 1.59279 26.9327 0.307768 20.3517C-0.646994 15.4694 0.630525 11.1552 3.9887 7.47689C4.08007 7.38693 4.152 7.27914 4.20003 7.16019C4.24806 7.04124 4.27117 6.91368 4.26793 6.78542C4.25592 4.90643 4.26793 3.02743 4.26793 1.14994L4.26192 0.664412Z" fill="white"/>
<path d="M48.5337 17.6159C47.9797 17.6159 47.4558 17.6159 46.9319 17.6159C46.7199 17.6152 46.5084 17.5956 46.2999 17.5573C45.7355 17.4491 45.3692 17.0958 45.2881 16.5381C45.225 16.1007 45.2761 15.6468 45.2761 15.1853H52.072C52.0915 15.2995 52.117 15.4077 52.1245 15.516C52.2747 17.9557 51.491 19.9474 49.3593 21.2822C48.2424 21.9812 46.998 22.2097 45.6964 22.1496C43.2675 22.0368 41.4645 20.8719 40.2921 18.7734C39.1197 16.6749 39.465 14.0804 40.9827 12.2195C43.7524 8.81774 49.0891 9.11387 51.5091 12.8869C51.5346 12.9275 51.5541 12.9726 51.5886 13.0372C51.5223 13.0909 51.4531 13.1411 51.3815 13.1875C50.9506 13.4175 50.5213 13.6385 50.0874 13.8685C49.3774 14.2292 48.6943 14.2142 48.0518 13.7076C47.9332 13.6144 47.8131 13.5242 47.6885 13.4401C47.3416 13.2017 46.948 13.04 46.5339 12.9656C46.1198 12.8912 45.6946 12.9059 45.2866 13.0086C44.7327 13.1388 44.2456 13.4677 43.9175 13.9331C43.0558 15.0846 43.0618 16.8568 43.9175 18.0128C44.9578 19.4273 46.8914 19.3341 47.9152 18.5885C48.2398 18.3571 48.4616 18.0083 48.5337 17.6159Z" fill="white"/>
<path d="M65.4087 21.9466H64.9148C64.1642 21.9466 63.4136 21.9466 62.663 21.9466C61.8133 21.9557 61.1993 21.5979 60.8435 20.8132C60.761 20.6328 60.6679 20.4555 60.5748 20.2676H56.5501L56.2349 20.9049C55.9091 21.5558 55.3822 21.9211 54.6571 21.9376C53.7324 21.9587 52.8076 21.9376 51.8829 21.9376C51.8597 21.9332 51.8374 21.9251 51.8168 21.9136C51.8075 21.9042 51.7994 21.8935 51.7928 21.882C51.7884 21.8709 51.7884 21.8585 51.7928 21.8474C53.8204 18.0053 55.849 14.1576 57.8787 10.3044C57.9237 10.2172 57.9792 10.1345 58.0288 10.0504H59.1096C61.1978 13.9917 63.2845 17.9346 65.4087 21.9466ZM59.5195 17.7046C59.1967 16.9215 58.898 16.2014 58.5977 15.4694H58.5242L57.6084 17.7016L59.5195 17.7046Z" fill="white"/>
<path d="M85.5202 21.9466H85.0248C84.2742 21.9466 83.5236 21.9466 82.773 21.9466C81.9233 21.9557 81.3094 21.5979 80.9536 20.8132C80.871 20.6329 80.7779 20.4555 80.6849 20.2676H76.6617C76.5551 20.481 76.4515 20.693 76.3449 20.9049C76.0191 21.5558 75.4937 21.9211 74.7686 21.9376C73.8439 21.9587 72.9177 21.9376 71.9929 21.9376C71.9698 21.9332 71.9475 21.9251 71.9269 21.9136C71.9175 21.9042 71.9094 21.8935 71.9029 21.882C71.8984 21.8709 71.8984 21.8585 71.9029 21.8474L77.9917 10.2969C78.0383 10.2097 78.0938 10.127 78.1418 10.0428H79.2227L85.5202 21.9466ZM79.6265 17.6986L78.6733 15.3792L77.7215 17.6986H79.6265Z" fill="white"/>
<path d="M116.943 10.0714H117.322C118.872 10.0714 120.422 10.0714 121.975 10.0714C122.513 10.0676 123.048 10.143 123.564 10.2954C124.566 10.6065 125.204 11.2664 125.431 12.2991C125.563 12.823 125.578 13.3699 125.473 13.9C125.263 14.823 124.786 15.4964 123.715 15.7039C123.883 15.7655 123.978 15.8076 124.077 15.8331C124.6 15.971 125.067 16.2704 125.411 16.6889C125.755 17.1074 125.958 17.6238 125.992 18.1646C126.039 18.6757 125.999 19.1911 125.874 19.6888C125.61 20.6328 124.988 21.2326 124.093 21.5753C123.606 21.7714 123.087 21.8768 122.562 21.8865C120.776 21.8925 118.989 21.8925 117.201 21.8865C117.118 21.8828 117.036 21.8742 116.954 21.861C116.865 21.5799 116.852 10.5013 116.943 10.0714ZM119.122 19.9504C119.261 19.9624 119.371 19.979 119.479 19.979C120.303 19.979 121.13 19.979 121.953 19.979C122.139 19.9708 122.325 19.9507 122.508 19.9188C123.422 19.7971 123.898 19.1672 123.793 18.1902C123.78 17.9252 123.683 17.6711 123.518 17.4637C123.353 17.2564 123.127 17.1062 122.872 17.0342C122.562 16.9407 122.24 16.8901 121.917 16.8839C121.105 16.8613 120.292 16.8718 119.482 16.8734C119.103 16.8734 119.091 16.8884 119.091 17.2852C119.091 18.0489 119.091 18.812 119.091 19.5746C119.088 19.6813 119.108 19.8031 119.119 19.9444L119.122 19.9504ZM119.113 14.8516C119.185 14.8825 119.261 14.9042 119.339 14.9162C120.261 14.9057 121.186 14.9162 122.106 14.8666C122.856 14.82 123.307 14.2849 123.325 13.5137C123.349 12.6975 122.983 12.224 122.211 12.0767C122.1 12.0594 121.988 12.0518 121.876 12.0541C121.064 12.0541 120.252 12.0541 119.443 12.0541C119.336 12.0541 119.23 12.0752 119.113 12.0872V14.8516Z" fill="white"/>
<path d="M101.4 21.8835C100.859 21.8835 100.387 21.909 99.9167 21.876C99.5519 21.8504 99.2982 21.5543 99.2427 21.1725C99.2281 21.0352 99.2226 20.8971 99.2261 20.7591C99.2261 19.6948 99.2261 18.6321 99.2261 17.5678C99.2261 17.174 99.2126 17.1604 98.8298 17.1604H93.6522C93.5426 17.1604 93.433 17.1785 93.2754 17.1905C93.2529 17.9812 93.2679 18.7523 93.2649 19.5235C93.2619 20.2946 93.2649 21.0703 93.2649 21.8865C92.7574 21.9241 92.2477 21.9186 91.7412 21.87C91.591 21.8497 91.4514 21.7814 91.3432 21.6752C91.235 21.569 91.1639 21.4306 91.1407 21.2807C91.0999 21.0829 91.0788 20.8814 91.0776 20.6794C91.0776 17.2862 91.0776 13.8935 91.0776 10.5013C91.0776 10.3675 91.0941 10.2352 91.1032 10.0894C91.5604 10.0672 92.0184 10.0707 92.4753 10.0999C93.0097 10.1631 93.2454 10.4757 93.2724 11.0214C93.2724 11.1206 93.2724 11.2213 93.2724 11.322V15.1853C93.4375 15.2003 93.5726 15.2213 93.7032 15.2213C95.4046 15.2213 97.1059 15.2213 98.8073 15.2213H98.9199C99.1961 15.2048 99.2201 15.1822 99.2351 14.9207C99.2351 14.82 99.2351 14.7208 99.2351 14.62V10.0714C99.7906 10.0714 100.31 9.99622 100.823 10.1405C100.97 10.1801 101.101 10.2632 101.199 10.3789C101.298 10.4945 101.359 10.6373 101.374 10.7884C101.4 10.9616 101.411 11.1365 101.407 11.3115C101.407 14.6797 101.407 18.0473 101.407 21.4145L101.4 21.8835Z" fill="white"/>
<path d="M66.8138 21.9196V12.9666L65.2675 12.9575C64.7706 12.9575 64.2737 12.9575 63.7348 12.9575C63.7348 12.3322 63.6447 11.7339 63.7919 11.1537C63.8712 10.8478 64.0458 10.5752 64.2904 10.3755C64.535 10.1757 64.8368 10.0592 65.1519 10.0428C65.263 10.0428 65.3771 10.0428 65.4882 10.0428H73.4941C73.5125 10.1291 73.5255 10.2165 73.5331 10.3044C73.5331 10.6546 73.5421 11.0064 73.5331 11.3566C73.5031 12.3487 72.8801 12.953 71.8818 12.9605C71.4224 12.9605 70.9616 12.9605 70.4467 12.9605V13.4235C70.4467 15.6392 70.4467 17.8544 70.4467 20.0692C70.4521 20.2949 70.4385 20.5206 70.4061 20.7441C70.3516 21.0348 70.2109 21.3023 70.0023 21.5117C69.7937 21.7211 69.5269 21.8627 69.2367 21.9181C69.114 21.9423 68.9894 21.9554 68.8644 21.9572C68.2774 21.9572 67.689 21.9572 67.102 21.9572C67.0053 21.95 66.9091 21.9375 66.8138 21.9196Z" fill="white"/>
<path d="M114.172 10.0714C114.181 10.2428 114.193 10.3721 114.193 10.4848C114.193 12.7005 114.193 14.9162 114.193 17.1319C114.211 17.8723 114.078 18.6086 113.804 19.2965C113.142 20.8493 111.943 21.7437 110.303 22.0339C109.257 22.2454 108.172 22.1753 107.161 21.8309C105.319 21.168 104.324 19.8242 104.11 17.8926C104.066 17.4429 104.047 16.9913 104.052 16.5397C104.052 14.5494 104.052 12.5592 104.052 10.5705V10.0895C104.641 10.0699 105.187 9.99326 105.719 10.1631C106.049 10.2668 106.204 10.5419 106.246 10.8756C106.259 11.0256 106.263 11.1762 106.258 11.3266C106.258 13.2417 106.258 15.1567 106.258 17.0703C106.259 17.3955 106.292 17.7197 106.357 18.0384C106.592 19.2018 107.363 19.8422 108.47 20.1173C109.455 20.3608 110.327 20.0692 111.098 19.4604C111.567 19.0891 111.791 18.5494 111.902 17.9722C111.957 17.6747 111.984 17.3728 111.983 17.0703C111.983 15.1312 111.998 13.1906 111.983 11.2514C111.983 10.5314 112.186 10.0489 113.184 10.0594C113.503 10.0714 113.824 10.0714 114.172 10.0714Z" fill="white"/>
</g>
<defs>
<clipPath id="clip0_17_2">
<rect width="126" height="32" fill="white"/>
</clipPath>
</defs>
</svg>
